<svg id="svg" version="1.1" xmlns="http://www.w3.org/2000/svg" viewBox="0 0 620 620" style="display: block;"><path d="M0,0 L620,0 L620,620 L0,620 Z " transform="translate(0,0)" style="fill: #62A0BF;"/><path d="M0,0 L123,0 L123,28 L149,28 L149,54 L174,54 L174,82 L198,82 L198,172 L226,172 L226,237 L247,237 L247,238 L248,238 L248,372 L225,372 L225,404 L197,404 L197,442 L225,442 L225,470 L97,470 L97,442 L149,442 L149,404 L173,404 L173,340 L149,340 L149,80 L72,80 L72,142 L95,142 L95,106 L124,106 L124,143 L96,143 L96,170 L72,170 L72,200 L0,200 L0,143 L-20,143 L-20,106 L0,106 L0,142 L24,142 L24,81 L-40,81 L-40,199 L-41,199 L-41,200 L-71,200 L-71,404 L-100,404 L-100,199 L-71,199 L-71,53 L-42,53 L-42,29 L-41,29 L-41,28 L-1,28 L-1,27 L0,27 Z " transform="translate(240,70)" style="fill: #000000;"/><path d="M0,0 L64,0 L64,61 L40,61 L40,25 L20,25 L20,62 L40,62 L40,119 L112,119 L112,89 L136,89 L136,62 L164,62 L164,25 L135,25 L135,61 L112,61 L112,0 L188,0 L188,237 L166,237 L166,278 L148,278 L148,293 L20,293 L20,278 L0,278 L0,260 L-31,260 L-31,119 L-1,119 L-1,118 L0,118 Z " transform="translate(200,151)" style="fill: #EEEBD6;"/><path d="M0,0 L39,0 L39,14 L40,14 L40,16 L39,16 L39,17 L38,17 L38,18 L37,18 L37,19 L36,19 L36,20 L35,20 L35,26 L36,26 L36,25 L37,25 L37,24 L47,24 L47,23 L50,23 L50,22 L55,22 L55,21 L56,21 L56,20 L59,20 L59,19 L60,19 L60,18 L61,18 L61,17 L62,17 L62,15 L63,15 L63,12 L132,12 L132,21 L142,21 L142,27 L161,27 L161,52 L113,52 L113,114 L136,114 L136,78 L165,78 L165,115 L137,115 L137,142 L113,142 L113,172 L41,172 L41,115 L21,115 L21,78 L41,78 L41,114 L65,114 L65,53 L1,53 L1,171 L0,171 L0,172 L-30,172 L-30,376 L-59,376 L-59,171 L-30,171 L-30,25 L-1,25 L-1,1 L0,1 Z " transform="translate(199,98)" style="fill: #132040;"/><path d="M0,0 L77,0 L77,260 L101,260 L101,324 L77,324 L77,362 L-33,362 L-33,361 L-144,361 L-144,324 L-143,324 L-143,261 L-112,261 L-112,279 L-92,279 L-92,294 L36,294 L36,279 L54,279 L54,238 L76,238 L76,1 L0,1 Z " transform="translate(312,150)" style="fill: #B8BB9F;"/><path d="M0,0 L23,0 L23,134 L0,134 L0,166 L-28,166 L-28,204 L0,204 L0,232 L-128,232 L-128,204 L-76,204 L-76,166 L-52,166 L-52,104 L-28,104 L-28,48 L-1,48 L-1,35 L0,35 Z " transform="translate(465,308)" style="fill: #000000;"/><path d="M0,0 L24,0 L24,90 L52,90 L52,155 L73,155 L73,156 L51,156 L51,191 L50,191 L50,204 L23,204 L23,260 L-1,260 L-1,90 L23,90 L23,1 L0,1 Z " transform="translate(414,152)" style="fill: #0F1B3A;"/><path d="M0,0 L66,0 L66,63 L113,63 L113,62 L136,62 L136,26 L165,26 L165,63 L137,63 L137,90 L113,90 L113,120 L41,120 L41,63 L21,63 L21,26 L41,26 L41,62 L65,62 L65,1 L1,1 L1,119 L0,119 Z " transform="translate(199,150)" style="fill: #A68D27;"/><path d="M0,0 L27,0 L27,204 L0,204 Z " transform="translate(141,270)" style="fill: #000000;"/><path d="M0,0 L29,0 L29,25 L30,25 L30,26 L29,26 L29,145 L0,145 Z " transform="translate(170,124)" style="fill: #000000;"/><path d="M0,0 L109,0 L109,29 L0,29 Z " transform="translate(170,512)" style="fill: #010202;"/><path d="M0,0 L39,0 L39,14 L40,14 L40,16 L39,16 L39,17 L38,17 L38,18 L37,18 L37,19 L36,19 L36,20 L35,20 L35,27 L34,27 L34,28 L33,28 L33,29 L32,29 L32,30 L31,30 L31,31 L29,31 L29,33 L28,33 L28,34 L26,34 L26,35 L24,35 L24,36 L23,36 L23,38 L21,38 L21,40 L20,40 L20,41 L19,41 L19,42 L18,42 L18,43 L17,43 L17,44 L16,44 L16,46 L15,46 L15,52 L1,52 L1,51 L0,51 L0,26 L-29,26 L-29,171 L0,171 L0,172 L-30,172 L-30,376 L-31,376 L-31,172 L-58,172 L-58,376 L-59,376 L-59,171 L-30,171 L-30,25 L-1,25 L-1,1 L0,1 Z " transform="translate(199,98)" style="fill: #161D20;"/><path d="M0,0 L106,0 L106,1 L121,1 L121,28 L102,28 L102,22 L92,22 L92,13 L23,13 L23,16 L22,16 L22,18 L21,18 L21,19 L20,19 L20,20 L19,20 L19,21 L16,21 L16,22 L15,22 L15,23 L10,23 L10,24 L7,24 L7,25 L-3,25 L-3,26 L-4,26 L-4,27 L-5,27 L-5,21 L-4,21 L-4,20 L-3,20 L-3,19 L-2,19 L-2,18 L-1,18 L-1,17 L0,17 L0,15 L-1,15 L-1,1 L0,1 Z " transform="translate(239,97)" style="fill: #000620;"/><path d="M0,0 L27,0 L27,53 L26,53 L26,69 L-1,69 L-1,56 L0,56 Z " transform="translate(437,356)" style="fill: #000520;"/><path d="M0,0 L28,0 L28,63 L0,63 Z " transform="translate(437,243)" style="fill: #000000;"/><path d="M0,0 L1,0 L1,26 L26,26 L26,55 L25,55 L25,56 L24,56 L24,114 L1,114 L1,53 L24,53 L24,54 L25,54 L25,27 L0,27 Z " transform="translate(388,98)" style="fill: #030925;"/><path d="M0,0 L20,0 L20,36 L24,36 L24,37 L21,37 L21,64 L43,64 L43,94 L20,94 L20,37 L0,37 Z " transform="translate(220,176)" style="fill: #B0AF91;"/><path d="M0,0 L48,0 L48,30 L0,30 Z " transform="translate(263,240)" style="fill: #BA5000;"/><path d="M0,0 L53,0 L53,27 L52,27 L52,26 L29,26 L29,25 L0,25 Z " transform="translate(360,125)" style="fill: #00041F;"/><path d="M0,0 L48,0 L48,26 L0,26 Z " transform="translate(264,213)" style="fill: #F4D730;"/><path d="M0,0 L28,0 L28,36 L0,36 Z " transform="translate(336,176)" style="fill: #040403;"/><path d="M0,0 L21,0 L21,35 L0,35 Z " transform="translate(290,177)" style="fill: #00021F;"/><path d="M0,0 L25,0 L25,27 L24,27 L24,26 L1,26 L1,25 L0,25 Z " transform="translate(388,125)" style="fill: #000000;"/><path d="M0,0 L18,0 L18,36 L0,36 Z " transform="translate(221,177)" style="fill: #020201;"/><path d="M0,0 L23,0 L23,28 L-1,28 L-1,27 L0,27 Z " transform="translate(414,214)" style="fill: #00051E;"/><path d="M0,0 L22,0 L22,26 L0,26 Z " transform="translate(313,213)" style="fill: #B08700;"/><path d="M0,0 L1,0 L1,1 L12,1 L12,2 L14,2 L14,3 L15,3 L15,4 L16,4 L16,5 L17,5 L17,6 L18,6 L18,7 L19,7 L19,8 L20,8 L20,9 L26,9 L26,10 L24,10 L24,11 L23,11 L23,13 L21,13 L21,15 L20,15 L20,16 L19,16 L19,17 L18,17 L18,18 L17,18 L17,19 L16,19 L16,21 L15,21 L15,27 L1,27 L1,26 L0,26 Z " transform="translate(199,123)" style="fill: #00031C;"/><path d="M0,0 L1,0 L1,36 L29,36 L29,37 L1,37 L1,64 L-23,64 L-23,94 L-24,94 L-24,64 L-71,64 L-71,63 L-23,63 L-23,36 L0,36 Z M-22,37 L-22,63 L0,63 L0,37 Z " transform="translate(335,176)" style="fill: #C4A453;"/><path d="M0,0 L5,0 L5,1 L4,1 L4,3 L2,3 L2,5 L1,5 L1,6 L0,6 L0,7 L-1,7 L-1,8 L-2,8 L-2,9 L-3,9 L-3,7 L-2,7 L-2,5 L-1,5 L-1,4 L0,4 Z " transform="translate(218,133)" style="fill: #040E30;"/></svg>